<?xml version="1.0" encoding="UTF-8" standalone="no"?>
<!DOCTYPE svg PUBLIC "-//W3C//DTD SVG 1.1//EN"
 "http://www.w3.org/Graphics/SVG/1.1/DTD/svg11.dtd">
<!-- Generated by graphviz version 2.43.0 (0)
 -->
<!-- Title: viz Pages: 1 -->
<svg width="202pt" height="188pt"
 viewBox="0.00 0.00 202.09 188.00" xmlns="http://www.w3.org/2000/svg" xmlns:xlink="http://www.w3.org/1999/xlink">
<g id="graph0" class="graph" transform="scale(1 1) rotate(0) translate(4 184)">
<title>viz</title>
<polygon fill="white" stroke="transparent" points="-4,4 -4,-184 198.09,-184 198.09,4 -4,4"/>
<!-- 0x7ffdad4aed30 -->
<g id="node1" class="node">
<title>0x7ffdad4aed30</title>
<ellipse fill="none" stroke="black" cx="80" cy="-162" rx="36.29" ry="18"/>
<text text-anchor="middle" x="80" y="-158.3" font-family="Times,serif" font-size="14.00">[root]</text>
</g>
<!-- 0x5db715e946e0 -->
<g id="node2" class="node">
<title>0x5db715e946e0</title>
<ellipse fill="none" stroke="black" cx="80" cy="-90" rx="27" ry="18"/>
<text text-anchor="middle" x="80" y="-86.3" font-family="Times,serif" font-size="14.00">ra</text>
</g>
<!-- 0x7ffdad4aed30&#45;&gt;0x5db715e946e0 -->
<g id="edge3" class="edge">
<title>0x7ffdad4aed30&#45;&gt;0x5db715e946e0</title>
<path fill="none" stroke="black" d="M80,-143.7C80,-135.98 80,-126.71 80,-118.11"/>
<polygon fill="black" stroke="black" points="83.5,-118.1 80,-108.1 76.5,-118.1 83.5,-118.1"/>
</g>
<!-- 0x5db715e93eb0 -->
<g id="node3" class="node">
<title>0x5db715e93eb0</title>
<ellipse fill="none" stroke="black" cx="27" cy="-18" rx="27" ry="18"/>
<text text-anchor="middle" x="27" y="-14.3" font-family="Times,serif" font-size="14.00">q</text>
</g>
<!-- 0x5db715e946e0&#45;&gt;0x5db715e93eb0 -->
<g id="edge1" class="edge">
<title>0x5db715e946e0&#45;&gt;0x5db715e93eb0</title>
<path fill="none" stroke="black" d="M68.24,-73.46C61.38,-64.4 52.58,-52.79 44.88,-42.61"/>
<polygon fill="black" stroke="black" points="47.56,-40.35 38.73,-34.49 41.98,-44.58 47.56,-40.35"/>
</g>
<!-- 0x5db715e94f10 -->
<g id="node4" class="node">
<title>0x5db715e94f10</title>
<ellipse fill="none" stroke="black" cx="133" cy="-18" rx="61.19" ry="18"/>
<text text-anchor="middle" x="133" y="-14.3" font-family="Times,serif" font-size="14.00">tackckckck</text>
</g>
<!-- 0x5db715e946e0&#45;&gt;0x5db715e94f10 -->
<g id="edge2" class="edge">
<title>0x5db715e946e0&#45;&gt;0x5db715e94f10</title>
<path fill="none" stroke="black" d="M91.76,-73.46C98.27,-64.87 106.52,-53.97 113.93,-44.19"/>
<polygon fill="black" stroke="black" points="116.91,-46.05 120.16,-35.96 111.33,-41.82 116.91,-46.05"/>
</g>
</g>
</svg>
