<?xml version="1.0" encoding="UTF-8" standalone="no"?>
<!DOCTYPE svg PUBLIC "-//W3C//DTD SVG 1.1//EN"
 "http://www.w3.org/Graphics/SVG/1.1/DTD/svg11.dtd">
<!-- Generated by graphviz version 2.43.0 (0)
 -->
<!-- Title: viz Pages: 1 -->
<svg width="543pt" height="510pt"
 viewBox="0.00 0.00 543.00 510.44" xmlns="http://www.w3.org/2000/svg" xmlns:xlink="http://www.w3.org/1999/xlink">
<g id="graph0" class="graph" transform="scale(1 1) rotate(0) translate(4 506.44)">
<title>viz</title>
<polygon fill="white" stroke="transparent" points="-4,4 -4,-506.44 539,-506.44 539,4 -4,4"/>
<!-- 0x7ffcd7004e60 -->
<g id="node1" class="node">
<title>0x7ffcd7004e60</title>
<ellipse fill="none" stroke="black" cx="285" cy="-475.57" rx="39.7" ry="26.74"/>
<text text-anchor="middle" x="285" y="-479.37" font-family="Times,serif" font-size="14.00">[root]</text>
<text text-anchor="middle" x="285" y="-464.37" font-family="Times,serif" font-size="14.00">0</text>
</g>
<!-- 0x5a5c0598b800 -->
<g id="node2" class="node">
<title>0x5a5c0598b800</title>
<ellipse fill="none" stroke="black" cx="171" cy="-385.83" rx="27" ry="26.74"/>
<text text-anchor="middle" x="171" y="-389.63" font-family="Times,serif" font-size="14.00">a</text>
<text text-anchor="middle" x="171" y="-374.63" font-family="Times,serif" font-size="14.00">0</text>
</g>
<!-- 0x7ffcd7004e60&#45;&gt;0x5a5c0598b800 -->
<g id="edge12" class="edge">
<title>0x7ffcd7004e60&#45;&gt;0x5a5c0598b800</title>
<path fill="none" stroke="black" d="M259.42,-454.88C241.77,-441.3 218.28,-423.22 199.95,-409.11"/>
<polygon fill="black" stroke="black" points="201.98,-406.26 191.92,-402.94 197.71,-411.81 201.98,-406.26"/>
</g>
<!-- 0x5a5c05991210 -->
<g id="node14" class="node">
<title>0x5a5c05991210</title>
<ellipse fill="none" stroke="black" cx="285" cy="-385.83" rx="35.21" ry="26.74"/>
<text text-anchor="middle" x="285" y="-389.63" font-family="Times,serif" font-size="14.00">coup</text>
<text text-anchor="middle" x="285" y="-374.63" font-family="Times,serif" font-size="14.00">1</text>
</g>
<!-- 0x7ffcd7004e60&#45;&gt;0x5a5c05991210 -->
<g id="edge15" class="edge">
<title>0x7ffcd7004e60&#45;&gt;0x5a5c05991210</title>
<path fill="none" stroke="black" d="M285,-448.25C285,-440.28 285,-431.39 285,-422.9"/>
<polygon fill="black" stroke="black" points="288.5,-422.83 285,-412.83 281.5,-422.83 288.5,-422.83"/>
</g>
<!-- 0x5a5c0598f980 -->
<g id="node17" class="node">
<title>0x5a5c0598f980</title>
<ellipse fill="none" stroke="black" cx="399" cy="-385.83" rx="27" ry="26.74"/>
<text text-anchor="middle" x="399" y="-389.63" font-family="Times,serif" font-size="14.00">fe</text>
<text text-anchor="middle" x="399" y="-374.63" font-family="Times,serif" font-size="14.00">0</text>
</g>
<!-- 0x7ffcd7004e60&#45;&gt;0x5a5c0598f980 -->
<g id="edge20" class="edge">
<title>0x7ffcd7004e60&#45;&gt;0x5a5c0598f980</title>
<path fill="none" stroke="black" d="M310.58,-454.88C328.23,-441.3 351.72,-423.22 370.05,-409.11"/>
<polygon fill="black" stroke="black" points="372.29,-411.81 378.08,-402.94 368.02,-406.26 372.29,-411.81"/>
</g>
<!-- 0x5a5c0598c860 -->
<g id="node3" class="node">
<title>0x5a5c0598c860</title>
<ellipse fill="none" stroke="black" cx="98" cy="-296.09" rx="27.65" ry="26.74"/>
<text text-anchor="middle" x="98" y="-299.89" font-family="Times,serif" font-size="14.00">ppl</text>
<text text-anchor="middle" x="98" y="-284.89" font-family="Times,serif" font-size="14.00">0</text>
</g>
<!-- 0x5a5c0598b800&#45;&gt;0x5a5c0598c860 -->
<g id="edge4" class="edge">
<title>0x5a5c0598b800&#45;&gt;0x5a5c0598c860</title>
<path fill="none" stroke="black" d="M154.07,-364.48C144.46,-352.94 132.29,-338.31 121.74,-325.63"/>
<polygon fill="black" stroke="black" points="124.18,-323.08 115.09,-317.63 118.8,-327.56 124.18,-323.08"/>
</g>
<!-- 0x5a5c059886e0 -->
<g id="node7" class="node">
<title>0x5a5c059886e0</title>
<ellipse fill="none" stroke="black" cx="171" cy="-296.09" rx="27" ry="26.74"/>
<text text-anchor="middle" x="171" y="-299.89" font-family="Times,serif" font-size="14.00">r</text>
<text text-anchor="middle" x="171" y="-284.89" font-family="Times,serif" font-size="14.00">0</text>
</g>
<!-- 0x5a5c0598b800&#45;&gt;0x5a5c059886e0 -->
<g id="edge11" class="edge">
<title>0x5a5c0598b800&#45;&gt;0x5a5c059886e0</title>
<path fill="none" stroke="black" d="M171,-358.51C171,-350.54 171,-341.65 171,-333.16"/>
<polygon fill="black" stroke="black" points="174.5,-333.09 171,-323.09 167.5,-333.09 174.5,-333.09"/>
</g>
<!-- 0x5a5c0598c030 -->
<g id="node4" class="node">
<title>0x5a5c0598c030</title>
<ellipse fill="none" stroke="black" cx="27" cy="-206.35" rx="27" ry="26.74"/>
<text text-anchor="middle" x="27" y="-210.15" font-family="Times,serif" font-size="14.00">e</text>
<text text-anchor="middle" x="27" y="-195.15" font-family="Times,serif" font-size="14.00">1</text>
</g>
<!-- 0x5a5c0598c860&#45;&gt;0x5a5c0598c030 -->
<g id="edge1" class="edge">
<title>0x5a5c0598c860&#45;&gt;0x5a5c0598c030</title>
<path fill="none" stroke="black" d="M81.17,-274.3C71.82,-262.74 60.05,-248.2 49.88,-235.62"/>
<polygon fill="black" stroke="black" points="52.47,-233.26 43.46,-227.69 47.03,-237.67 52.47,-233.26"/>
</g>
<!-- 0x5a5c0598d8c0 -->
<g id="node5" class="node">
<title>0x5a5c0598d8c0</title>
<ellipse fill="none" stroke="black" cx="99" cy="-206.35" rx="27" ry="26.74"/>
<text text-anchor="middle" x="99" y="-210.15" font-family="Times,serif" font-size="14.00">ic</text>
<text text-anchor="middle" x="99" y="-195.15" font-family="Times,serif" font-size="14.00">1</text>
</g>
<!-- 0x5a5c0598c860&#45;&gt;0x5a5c0598d8c0 -->
<g id="edge3" class="edge">
<title>0x5a5c0598c860&#45;&gt;0x5a5c0598d8c0</title>
<path fill="none" stroke="black" d="M98.3,-268.77C98.39,-260.8 98.49,-251.91 98.59,-243.42"/>
<polygon fill="black" stroke="black" points="102.09,-243.39 98.7,-233.35 95.09,-243.31 102.09,-243.39"/>
</g>
<!-- 0x5a5c0598d090 -->
<g id="node6" class="node">
<title>0x5a5c0598d090</title>
<ellipse fill="none" stroke="black" cx="99" cy="-116.61" rx="37.45" ry="26.74"/>
<text text-anchor="middle" x="99" y="-120.41" font-family="Times,serif" font-size="14.00">ation</text>
<text text-anchor="middle" x="99" y="-105.41" font-family="Times,serif" font-size="14.00">1</text>
</g>
<!-- 0x5a5c0598d8c0&#45;&gt;0x5a5c0598d090 -->
<g id="edge2" class="edge">
<title>0x5a5c0598d8c0&#45;&gt;0x5a5c0598d090</title>
<path fill="none" stroke="black" d="M99,-179.03C99,-171.06 99,-162.17 99,-153.68"/>
<polygon fill="black" stroke="black" points="102.5,-153.61 99,-143.61 95.5,-153.61 102.5,-153.61"/>
</g>
<!-- 0x5a5c05987eb0 -->
<g id="node8" class="node">
<title>0x5a5c05987eb0</title>
<ellipse fill="none" stroke="black" cx="171" cy="-206.35" rx="27" ry="26.74"/>
<text text-anchor="middle" x="171" y="-210.15" font-family="Times,serif" font-size="14.00">a</text>
<text text-anchor="middle" x="171" y="-195.15" font-family="Times,serif" font-size="14.00">1</text>
</g>
<!-- 0x5a5c059886e0&#45;&gt;0x5a5c05987eb0 -->
<g id="edge5" class="edge">
<title>0x5a5c059886e0&#45;&gt;0x5a5c05987eb0</title>
<path fill="none" stroke="black" d="M171,-268.77C171,-260.8 171,-251.91 171,-243.42"/>
<polygon fill="black" stroke="black" points="174.5,-243.35 171,-233.35 167.5,-243.35 174.5,-243.35"/>
</g>
<!-- 0x5a5c0598a7a0 -->
<g id="node9" class="node">
<title>0x5a5c0598a7a0</title>
<ellipse fill="none" stroke="black" cx="243" cy="-206.35" rx="27" ry="26.74"/>
<text text-anchor="middle" x="243" y="-210.15" font-family="Times,serif" font-size="14.00">ri</text>
<text text-anchor="middle" x="243" y="-195.15" font-family="Times,serif" font-size="14.00">0</text>
</g>
<!-- 0x5a5c059886e0&#45;&gt;0x5a5c0598a7a0 -->
<g id="edge10" class="edge">
<title>0x5a5c059886e0&#45;&gt;0x5a5c0598a7a0</title>
<path fill="none" stroke="black" d="M187.7,-274.74C197.24,-263.11 209.35,-248.36 219.8,-235.62"/>
<polygon fill="black" stroke="black" points="222.75,-237.54 226.39,-227.59 217.34,-233.1 222.75,-237.54"/>
</g>
<!-- 0x5a5c0598afd0 -->
<g id="node10" class="node">
<title>0x5a5c0598afd0</title>
<ellipse fill="none" stroke="black" cx="214" cy="-116.61" rx="31.64" ry="26.74"/>
<text text-anchor="middle" x="214" y="-120.41" font-family="Times,serif" font-size="14.00">mer</text>
<text text-anchor="middle" x="214" y="-105.41" font-family="Times,serif" font-size="14.00">1</text>
</g>
<!-- 0x5a5c0598a7a0&#45;&gt;0x5a5c0598afd0 -->
<g id="edge6" class="edge">
<title>0x5a5c0598a7a0&#45;&gt;0x5a5c0598afd0</title>
<path fill="none" stroke="black" d="M234.77,-180.44C231.86,-171.64 228.53,-161.58 225.41,-152.13"/>
<polygon fill="black" stroke="black" points="228.71,-150.98 222.25,-142.58 222.07,-153.17 228.71,-150.98"/>
</g>
<!-- 0x5a5c05989740 -->
<g id="node11" class="node">
<title>0x5a5c05989740</title>
<ellipse fill="none" stroke="black" cx="291" cy="-116.61" rx="27" ry="26.74"/>
<text text-anchor="middle" x="291" y="-120.41" font-family="Times,serif" font-size="14.00">v</text>
<text text-anchor="middle" x="291" y="-105.41" font-family="Times,serif" font-size="14.00">1</text>
</g>
<!-- 0x5a5c0598a7a0&#45;&gt;0x5a5c05989740 -->
<g id="edge9" class="edge">
<title>0x5a5c0598a7a0&#45;&gt;0x5a5c05989740</title>
<path fill="none" stroke="black" d="M255.61,-182.3C261.12,-172.22 267.68,-160.24 273.64,-149.34"/>
<polygon fill="black" stroke="black" points="276.74,-150.96 278.47,-140.51 270.6,-147.6 276.74,-150.96"/>
</g>
<!-- 0x5a5c05989f70 -->
<g id="node12" class="node">
<title>0x5a5c05989f70</title>
<ellipse fill="none" stroke="black" cx="253" cy="-26.87" rx="29.9" ry="26.74"/>
<text text-anchor="middle" x="253" y="-30.67" font-family="Times,serif" font-size="14.00">age</text>
<text text-anchor="middle" x="253" y="-15.67" font-family="Times,serif" font-size="14.00">1</text>
</g>
<!-- 0x5a5c05989740&#45;&gt;0x5a5c05989f70 -->
<g id="edge7" class="edge">
<title>0x5a5c05989740&#45;&gt;0x5a5c05989f70</title>
<path fill="none" stroke="black" d="M280.62,-91.63C276.59,-82.33 271.9,-71.51 267.55,-61.45"/>
<polygon fill="black" stroke="black" points="270.69,-59.91 263.5,-52.12 264.27,-62.69 270.69,-59.91"/>
</g>
<!-- 0x5a5c05988f10 -->
<g id="node13" class="node">
<title>0x5a5c05988f10</title>
<ellipse fill="none" stroke="black" cx="328" cy="-26.87" rx="27" ry="26.74"/>
<text text-anchor="middle" x="328" y="-30.67" font-family="Times,serif" font-size="14.00">er</text>
<text text-anchor="middle" x="328" y="-15.67" font-family="Times,serif" font-size="14.00">1</text>
</g>
<!-- 0x5a5c05989740&#45;&gt;0x5a5c05988f10 -->
<g id="edge8" class="edge">
<title>0x5a5c05989740&#45;&gt;0x5a5c05988f10</title>
<path fill="none" stroke="black" d="M301.11,-91.63C305.07,-82.25 309.67,-71.33 313.94,-61.2"/>
<polygon fill="black" stroke="black" points="317.24,-62.39 317.9,-51.82 310.79,-59.67 317.24,-62.39"/>
</g>
<!-- 0x5a5c05991a40 -->
<g id="node15" class="node">
<title>0x5a5c05991a40</title>
<ellipse fill="none" stroke="black" cx="249" cy="-296.09" rx="33.47" ry="26.74"/>
<text text-anchor="middle" x="249" y="-299.89" font-family="Times,serif" font-size="14.00">able</text>
<text text-anchor="middle" x="249" y="-284.89" font-family="Times,serif" font-size="14.00">1</text>
</g>
<!-- 0x5a5c05991210&#45;&gt;0x5a5c05991a40 -->
<g id="edge13" class="edge">
<title>0x5a5c05991210&#45;&gt;0x5a5c05991a40</title>
<path fill="none" stroke="black" d="M274.78,-359.92C271.1,-350.95 266.88,-340.68 262.94,-331.07"/>
<polygon fill="black" stroke="black" points="266.15,-329.68 259.12,-321.76 259.68,-332.34 266.15,-329.68"/>
</g>
<!-- 0x5a5c059909e0 -->
<g id="node16" class="node">
<title>0x5a5c059909e0</title>
<ellipse fill="none" stroke="black" cx="327" cy="-296.09" rx="27" ry="26.74"/>
<text text-anchor="middle" x="327" y="-299.89" font-family="Times,serif" font-size="14.00">e</text>
<text text-anchor="middle" x="327" y="-284.89" font-family="Times,serif" font-size="14.00">1</text>
</g>
<!-- 0x5a5c05991210&#45;&gt;0x5a5c059909e0 -->
<g id="edge14" class="edge">
<title>0x5a5c05991210&#45;&gt;0x5a5c059909e0</title>
<path fill="none" stroke="black" d="M296.7,-360.39C301.19,-351.01 306.39,-340.15 311.2,-330.11"/>
<polygon fill="black" stroke="black" points="314.49,-331.33 315.65,-320.79 308.18,-328.3 314.49,-331.33"/>
</g>
<!-- 0x5a5c059901b0 -->
<g id="node18" class="node">
<title>0x5a5c059901b0</title>
<ellipse fill="none" stroke="black" cx="399" cy="-296.09" rx="27" ry="26.74"/>
<text text-anchor="middle" x="399" y="-299.89" font-family="Times,serif" font-size="14.00">e</text>
<text text-anchor="middle" x="399" y="-284.89" font-family="Times,serif" font-size="14.00">1</text>
</g>
<!-- 0x5a5c0598f980&#45;&gt;0x5a5c059901b0 -->
<g id="edge16" class="edge">
<title>0x5a5c0598f980&#45;&gt;0x5a5c059901b0</title>
<path fill="none" stroke="black" d="M399,-358.51C399,-350.54 399,-341.65 399,-333.16"/>
<polygon fill="black" stroke="black" points="402.5,-333.09 399,-323.09 395.5,-333.09 402.5,-333.09"/>
</g>
<!-- 0x5a5c0598e920 -->
<g id="node19" class="node">
<title>0x5a5c0598e920</title>
<ellipse fill="none" stroke="black" cx="471" cy="-296.09" rx="27" ry="26.74"/>
<text text-anchor="middle" x="471" y="-299.89" font-family="Times,serif" font-size="14.00">t</text>
<text text-anchor="middle" x="471" y="-284.89" font-family="Times,serif" font-size="14.00">0</text>
</g>
<!-- 0x5a5c0598f980&#45;&gt;0x5a5c0598e920 -->
<g id="edge19" class="edge">
<title>0x5a5c0598f980&#45;&gt;0x5a5c0598e920</title>
<path fill="none" stroke="black" d="M415.7,-364.48C425.24,-352.85 437.35,-338.1 447.8,-325.36"/>
<polygon fill="black" stroke="black" points="450.75,-327.28 454.39,-317.33 445.34,-322.84 450.75,-327.28"/>
</g>
<!-- 0x5a5c0598f150 -->
<g id="node20" class="node">
<title>0x5a5c0598f150</title>
<ellipse fill="none" stroke="black" cx="434" cy="-206.35" rx="28.98" ry="26.74"/>
<text text-anchor="middle" x="434" y="-210.15" font-family="Times,serif" font-size="14.00">ard</text>
<text text-anchor="middle" x="434" y="-195.15" font-family="Times,serif" font-size="14.00">1</text>
</g>
<!-- 0x5a5c0598e920&#45;&gt;0x5a5c0598f150 -->
<g id="edge17" class="edge">
<title>0x5a5c0598e920&#45;&gt;0x5a5c0598f150</title>
<path fill="none" stroke="black" d="M460.89,-271.12C456.97,-261.81 452.4,-250.99 448.16,-240.93"/>
<polygon fill="black" stroke="black" points="451.34,-239.46 444.23,-231.6 444.89,-242.18 451.34,-239.46"/>
</g>
<!-- 0x5a5c0598e0f0 -->
<g id="node21" class="node">
<title>0x5a5c0598e0f0</title>
<ellipse fill="none" stroke="black" cx="508" cy="-206.35" rx="27" ry="26.74"/>
<text text-anchor="middle" x="508" y="-210.15" font-family="Times,serif" font-size="14.00">e</text>
<text text-anchor="middle" x="508" y="-195.15" font-family="Times,serif" font-size="14.00">1</text>
</g>
<!-- 0x5a5c0598e920&#45;&gt;0x5a5c0598e0f0 -->
<g id="edge18" class="edge">
<title>0x5a5c0598e920&#45;&gt;0x5a5c0598e0f0</title>
<path fill="none" stroke="black" d="M481.11,-271.12C485.07,-261.73 489.67,-250.81 493.94,-240.69"/>
<polygon fill="black" stroke="black" points="497.24,-241.87 497.9,-231.3 490.79,-239.15 497.24,-241.87"/>
</g>
</g>
</svg>
