<?xml version="1.0" encoding="UTF-8" standalone="no"?>
<!DOCTYPE svg PUBLIC "-//W3C//DTD SVG 1.1//EN"
 "http://www.w3.org/Graphics/SVG/1.1/DTD/svg11.dtd">
<!-- Generated by graphviz version 2.43.0 (0)
 -->
<!-- Title: viz Pages: 1 -->
<svg width="134pt" height="331pt"
 viewBox="0.00 0.00 134.00 330.96" xmlns="http://www.w3.org/2000/svg" xmlns:xlink="http://www.w3.org/1999/xlink">
<g id="graph0" class="graph" transform="scale(1 1) rotate(0) translate(4 326.96)">
<title>viz</title>
<polygon fill="white" stroke="transparent" points="-4,4 -4,-326.96 130,-326.96 130,4 -4,4"/>
<!-- 0x7ffdc33406d0 -->
<g id="node1" class="node">
<title>0x7ffdc33406d0</title>
<ellipse fill="none" stroke="black" cx="63" cy="-296.09" rx="39.7" ry="26.74"/>
<text text-anchor="middle" x="63" y="-299.89" font-family="Times,serif" font-size="14.00">[root]</text>
<text text-anchor="middle" x="63" y="-284.89" font-family="Times,serif" font-size="14.00">0</text>
</g>
<!-- 0x5df084ce4eb0 -->
<g id="node2" class="node">
<title>0x5df084ce4eb0</title>
<ellipse fill="none" stroke="black" cx="63" cy="-206.35" rx="30.31" ry="26.74"/>
<text text-anchor="middle" x="63" y="-210.15" font-family="Times,serif" font-size="14.00">app</text>
<text text-anchor="middle" x="63" y="-195.15" font-family="Times,serif" font-size="14.00">1</text>
</g>
<!-- 0x7ffdc33406d0&#45;&gt;0x5df084ce4eb0 -->
<g id="edge4" class="edge">
<title>0x7ffdc33406d0&#45;&gt;0x5df084ce4eb0</title>
<path fill="none" stroke="black" d="M63,-268.77C63,-260.8 63,-251.91 63,-243.42"/>
<polygon fill="black" stroke="black" points="66.5,-243.35 63,-233.35 59.5,-243.35 66.5,-243.35"/>
</g>
<!-- 0x5df084ce5f10 -->
<g id="node3" class="node">
<title>0x5df084ce5f10</title>
<ellipse fill="none" stroke="black" cx="63" cy="-116.61" rx="27" ry="26.74"/>
<text text-anchor="middle" x="63" y="-120.41" font-family="Times,serif" font-size="14.00">l</text>
<text text-anchor="middle" x="63" y="-105.41" font-family="Times,serif" font-size="14.00">1</text>
</g>
<!-- 0x5df084ce4eb0&#45;&gt;0x5df084ce5f10 -->
<g id="edge3" class="edge">
<title>0x5df084ce4eb0&#45;&gt;0x5df084ce5f10</title>
<path fill="none" stroke="black" d="M63,-179.03C63,-171.06 63,-162.17 63,-153.68"/>
<polygon fill="black" stroke="black" points="66.5,-153.61 63,-143.61 59.5,-153.61 66.5,-153.61"/>
</g>
<!-- 0x5df084ce6740 -->
<g id="node4" class="node">
<title>0x5df084ce6740</title>
<ellipse fill="none" stroke="black" cx="27" cy="-26.87" rx="27" ry="26.74"/>
<text text-anchor="middle" x="27" y="-30.67" font-family="Times,serif" font-size="14.00">1</text>
<text text-anchor="middle" x="27" y="-15.67" font-family="Times,serif" font-size="14.00">1</text>
</g>
<!-- 0x5df084ce5f10&#45;&gt;0x5df084ce6740 -->
<g id="edge1" class="edge">
<title>0x5df084ce5f10&#45;&gt;0x5df084ce6740</title>
<path fill="none" stroke="black" d="M52.97,-91.17C49.23,-82.04 44.91,-71.51 40.88,-61.69"/>
<polygon fill="black" stroke="black" points="44.01,-60.1 36.97,-52.18 37.53,-62.76 44.01,-60.1"/>
</g>
<!-- 0x5df084ce56e0 -->
<g id="node5" class="node">
<title>0x5df084ce56e0</title>
<ellipse fill="none" stroke="black" cx="99" cy="-26.87" rx="27" ry="26.74"/>
<text text-anchor="middle" x="99" y="-30.67" font-family="Times,serif" font-size="14.00">e</text>
<text text-anchor="middle" x="99" y="-15.67" font-family="Times,serif" font-size="14.00">1</text>
</g>
<!-- 0x5df084ce5f10&#45;&gt;0x5df084ce56e0 -->
<g id="edge2" class="edge">
<title>0x5df084ce5f10&#45;&gt;0x5df084ce56e0</title>
<path fill="none" stroke="black" d="M73.03,-91.17C76.77,-82.04 81.09,-71.51 85.12,-61.69"/>
<polygon fill="black" stroke="black" points="88.47,-62.76 89.03,-52.18 81.99,-60.1 88.47,-62.76"/>
</g>
</g>
</svg>
