<?xml version="1.0" encoding="UTF-8" standalone="no"?>
<!DOCTYPE svg PUBLIC "-//W3C//DTD SVG 1.1//EN"
 "http://www.w3.org/Graphics/SVG/1.1/DTD/svg11.dtd">
<!-- Generated by graphviz version 2.43.0 (0)
 -->
<!-- Title: viz Pages: 1 -->
<svg width="649pt" height="260pt"
 viewBox="0.00 0.00 649.00 260.00" xmlns="http://www.w3.org/2000/svg" xmlns:xlink="http://www.w3.org/1999/xlink">
<g id="graph0" class="graph" transform="scale(1 1) rotate(0) translate(4 256)">
<title>viz</title>
<polygon fill="white" stroke="transparent" points="-4,4 -4,-256 645,-256 645,4 -4,4"/>
<!-- 0x7fff1407f2b0 -->
<g id="node1" class="node">
<title>0x7fff1407f2b0</title>
<ellipse fill="none" stroke="black" cx="328" cy="-234" rx="36.29" ry="18"/>
<text text-anchor="middle" x="328" y="-230.3" font-family="Times,serif" font-size="14.00">[root]</text>
</g>
<!-- 0x61380c48b740 -->
<g id="node2" class="node">
<title>0x61380c48b740</title>
<ellipse fill="none" stroke="black" cx="99" cy="-162" rx="30.59" ry="18"/>
<text text-anchor="middle" x="99" y="-158.3" font-family="Times,serif" font-size="14.00">appl</text>
</g>
<!-- 0x7fff1407f2b0&#45;&gt;0x61380c48b740 -->
<g id="edge4" class="edge">
<title>0x7fff1407f2b0&#45;&gt;0x61380c48b740</title>
<path fill="none" stroke="black" d="M297.59,-223.7C255.63,-210.88 180.08,-187.78 135.24,-174.08"/>
<polygon fill="black" stroke="black" points="136.2,-170.71 125.62,-171.14 134.16,-177.41 136.2,-170.71"/>
</g>
<!-- 0x61380c491980 -->
<g id="node6" class="node">
<title>0x61380c491980</title>
<ellipse fill="none" stroke="black" cx="278" cy="-162" rx="27" ry="18"/>
<text text-anchor="middle" x="278" y="-158.3" font-family="Times,serif" font-size="14.00">c</text>
</g>
<!-- 0x7fff1407f2b0&#45;&gt;0x61380c491980 -->
<g id="edge9" class="edge">
<title>0x7fff1407f2b0&#45;&gt;0x61380c491980</title>
<path fill="none" stroke="black" d="M316.4,-216.76C310.07,-207.89 302.1,-196.74 295.07,-186.89"/>
<polygon fill="black" stroke="black" points="297.85,-184.77 289.19,-178.67 292.15,-188.84 297.85,-184.77"/>
</g>
<!-- 0x61380c48e860 -->
<g id="node11" class="node">
<title>0x61380c48e860</title>
<ellipse fill="none" stroke="black" cx="419" cy="-162" rx="27" ry="18"/>
<text text-anchor="middle" x="419" y="-158.3" font-family="Times,serif" font-size="14.00">fe</text>
</g>
<!-- 0x7fff1407f2b0&#45;&gt;0x61380c48e860 -->
<g id="edge15" class="edge">
<title>0x7fff1407f2b0&#45;&gt;0x61380c48e860</title>
<path fill="none" stroke="black" d="M346.86,-218.5C360.43,-208.05 378.9,-193.85 393.75,-182.42"/>
<polygon fill="black" stroke="black" points="396.22,-184.94 402.01,-176.07 391.95,-179.39 396.22,-184.94"/>
</g>
<!-- 0x61380c48a6e0 -->
<g id="node17" class="node">
<title>0x61380c48a6e0</title>
<ellipse fill="none" stroke="black" cx="573" cy="-162" rx="27.9" ry="18"/>
<text text-anchor="middle" x="573" y="-158.3" font-family="Times,serif" font-size="14.00">pen</text>
</g>
<!-- 0x7fff1407f2b0&#45;&gt;0x61380c48a6e0 -->
<g id="edge17" class="edge">
<title>0x7fff1407f2b0&#45;&gt;0x61380c48a6e0</title>
<path fill="none" stroke="black" d="M359.03,-224.13C404.83,-211.05 490.26,-186.64 538.16,-172.95"/>
<polygon fill="black" stroke="black" points="539.13,-176.32 547.78,-170.21 537.2,-169.59 539.13,-176.32"/>
</g>
<!-- 0x61380c48af10 -->
<g id="node3" class="node">
<title>0x61380c48af10</title>
<ellipse fill="none" stroke="black" cx="27" cy="-90" rx="27" ry="18"/>
<text text-anchor="middle" x="27" y="-86.3" font-family="Times,serif" font-size="14.00">e</text>
</g>
<!-- 0x61380c48b740&#45;&gt;0x61380c48af10 -->
<g id="edge1" class="edge">
<title>0x61380c48b740&#45;&gt;0x61380c48af10</title>
<path fill="none" stroke="black" d="M83.73,-146.15C73.67,-136.37 60.33,-123.4 49.11,-112.5"/>
<polygon fill="black" stroke="black" points="51.36,-109.81 41.75,-105.35 46.49,-114.83 51.36,-109.81"/>
</g>
<!-- 0x61380c48bf70 -->
<g id="node4" class="node">
<title>0x61380c48bf70</title>
<ellipse fill="none" stroke="black" cx="99" cy="-90" rx="27" ry="18"/>
<text text-anchor="middle" x="99" y="-86.3" font-family="Times,serif" font-size="14.00">ic</text>
</g>
<!-- 0x61380c48b740&#45;&gt;0x61380c48bf70 -->
<g id="edge3" class="edge">
<title>0x61380c48b740&#45;&gt;0x61380c48bf70</title>
<path fill="none" stroke="black" d="M99,-143.7C99,-135.98 99,-126.71 99,-118.11"/>
<polygon fill="black" stroke="black" points="102.5,-118.1 99,-108.1 95.5,-118.1 102.5,-118.1"/>
</g>
<!-- 0x61380c48c7a0 -->
<g id="node5" class="node">
<title>0x61380c48c7a0</title>
<ellipse fill="none" stroke="black" cx="94" cy="-18" rx="34.39" ry="18"/>
<text text-anchor="middle" x="94" y="-14.3" font-family="Times,serif" font-size="14.00">ation</text>
</g>
<!-- 0x61380c48bf70&#45;&gt;0x61380c48c7a0 -->
<g id="edge2" class="edge">
<title>0x61380c48bf70&#45;&gt;0x61380c48c7a0</title>
<path fill="none" stroke="black" d="M97.76,-71.7C97.21,-63.98 96.55,-54.71 95.94,-46.11"/>
<polygon fill="black" stroke="black" points="99.43,-45.83 95.22,-36.1 92.44,-46.33 99.43,-45.83"/>
</g>
<!-- 0x61380c490920 -->
<g id="node7" class="node">
<title>0x61380c490920</title>
<ellipse fill="none" stroke="black" cx="177" cy="-90" rx="27.9" ry="18"/>
<text text-anchor="middle" x="177" y="-86.3" font-family="Times,serif" font-size="14.00">oup</text>
</g>
<!-- 0x61380c491980&#45;&gt;0x61380c490920 -->
<g id="edge7" class="edge">
<title>0x61380c491980&#45;&gt;0x61380c490920</title>
<path fill="none" stroke="black" d="M259.94,-148.49C244.24,-137.6 221.28,-121.69 203.5,-109.37"/>
<polygon fill="black" stroke="black" points="205.45,-106.46 195.24,-103.64 201.47,-112.22 205.45,-106.46"/>
</g>
<!-- 0x61380c4921b0 -->
<g id="node10" class="node">
<title>0x61380c4921b0</title>
<ellipse fill="none" stroke="black" cx="278" cy="-90" rx="54.69" ry="18"/>
<text text-anchor="middle" x="278" y="-86.3" font-family="Times,serif" font-size="14.00">ulpabilite</text>
</g>
<!-- 0x61380c491980&#45;&gt;0x61380c4921b0 -->
<g id="edge8" class="edge">
<title>0x61380c491980&#45;&gt;0x61380c4921b0</title>
<path fill="none" stroke="black" d="M278,-143.7C278,-135.98 278,-126.71 278,-118.11"/>
<polygon fill="black" stroke="black" points="281.5,-118.1 278,-108.1 274.5,-118.1 281.5,-118.1"/>
</g>
<!-- 0x61380c491150 -->
<g id="node8" class="node">
<title>0x61380c491150</title>
<ellipse fill="none" stroke="black" cx="177" cy="-18" rx="30.59" ry="18"/>
<text text-anchor="middle" x="177" y="-14.3" font-family="Times,serif" font-size="14.00">able</text>
</g>
<!-- 0x61380c490920&#45;&gt;0x61380c491150 -->
<g id="edge5" class="edge">
<title>0x61380c490920&#45;&gt;0x61380c491150</title>
<path fill="none" stroke="black" d="M177,-71.7C177,-63.98 177,-54.71 177,-46.11"/>
<polygon fill="black" stroke="black" points="180.5,-46.1 177,-36.1 173.5,-46.1 180.5,-46.1"/>
</g>
<!-- 0x61380c4900f0 -->
<g id="node9" class="node">
<title>0x61380c4900f0</title>
<ellipse fill="none" stroke="black" cx="253" cy="-18" rx="27" ry="18"/>
<text text-anchor="middle" x="253" y="-14.3" font-family="Times,serif" font-size="14.00">e</text>
</g>
<!-- 0x61380c490920&#45;&gt;0x61380c4900f0 -->
<g id="edge6" class="edge">
<title>0x61380c490920&#45;&gt;0x61380c4900f0</title>
<path fill="none" stroke="black" d="M192.38,-74.83C203.2,-64.87 217.86,-51.37 230.05,-40.14"/>
<polygon fill="black" stroke="black" points="232.66,-42.49 237.64,-33.14 227.92,-37.34 232.66,-42.49"/>
</g>
<!-- 0x61380c48f8c0 -->
<g id="node12" class="node">
<title>0x61380c48f8c0</title>
<ellipse fill="none" stroke="black" cx="378" cy="-90" rx="27" ry="18"/>
<text text-anchor="middle" x="378" y="-86.3" font-family="Times,serif" font-size="14.00">e</text>
</g>
<!-- 0x61380c48e860&#45;&gt;0x61380c48f8c0 -->
<g id="edge10" class="edge">
<title>0x61380c48e860&#45;&gt;0x61380c48f8c0</title>
<path fill="none" stroke="black" d="M409.49,-144.76C404.47,-136.19 398.2,-125.49 392.58,-115.9"/>
<polygon fill="black" stroke="black" points="395.53,-114.01 387.46,-107.15 389.49,-117.55 395.53,-114.01"/>
</g>
<!-- 0x61380c48f090 -->
<g id="node13" class="node">
<title>0x61380c48f090</title>
<ellipse fill="none" stroke="black" cx="460" cy="-90" rx="37.09" ry="18"/>
<text text-anchor="middle" x="460" y="-86.3" font-family="Times,serif" font-size="14.00">lation</text>
</g>
<!-- 0x61380c48e860&#45;&gt;0x61380c48f090 -->
<g id="edge11" class="edge">
<title>0x61380c48e860&#45;&gt;0x61380c48f090</title>
<path fill="none" stroke="black" d="M428.51,-144.76C433.46,-136.32 439.62,-125.8 445.17,-116.31"/>
<polygon fill="black" stroke="black" points="448.22,-118.03 450.26,-107.63 442.18,-114.49 448.22,-118.03"/>
</g>
<!-- 0x61380c48d800 -->
<g id="node14" class="node">
<title>0x61380c48d800</title>
<ellipse fill="none" stroke="black" cx="542" cy="-90" rx="27" ry="18"/>
<text text-anchor="middle" x="542" y="-86.3" font-family="Times,serif" font-size="14.00">t</text>
</g>
<!-- 0x61380c48e860&#45;&gt;0x61380c48d800 -->
<g id="edge14" class="edge">
<title>0x61380c48e860&#45;&gt;0x61380c48d800</title>
<path fill="none" stroke="black" d="M439.04,-149.6C459.14,-138.16 490.31,-120.42 513.09,-107.46"/>
<polygon fill="black" stroke="black" points="515.01,-110.39 521.97,-102.4 511.55,-104.3 515.01,-110.39"/>
</g>
<!-- 0x61380c48e030 -->
<g id="node15" class="node">
<title>0x61380c48e030</title>
<ellipse fill="none" stroke="black" cx="506" cy="-18" rx="27" ry="18"/>
<text text-anchor="middle" x="506" y="-14.3" font-family="Times,serif" font-size="14.00">ard</text>
</g>
<!-- 0x61380c48d800&#45;&gt;0x61380c48e030 -->
<g id="edge12" class="edge">
<title>0x61380c48d800&#45;&gt;0x61380c48e030</title>
<path fill="none" stroke="black" d="M533.65,-72.76C529.29,-64.28 523.85,-53.71 518.96,-44.2"/>
<polygon fill="black" stroke="black" points="521.99,-42.44 514.3,-35.15 515.77,-45.64 521.99,-42.44"/>
</g>
<!-- 0x61380c48cfd0 -->
<g id="node16" class="node">
<title>0x61380c48cfd0</title>
<ellipse fill="none" stroke="black" cx="578" cy="-18" rx="27" ry="18"/>
<text text-anchor="middle" x="578" y="-14.3" font-family="Times,serif" font-size="14.00">e</text>
</g>
<!-- 0x61380c48d800&#45;&gt;0x61380c48cfd0 -->
<g id="edge13" class="edge">
<title>0x61380c48d800&#45;&gt;0x61380c48cfd0</title>
<path fill="none" stroke="black" d="M550.35,-72.76C554.71,-64.28 560.15,-53.71 565.04,-44.2"/>
<polygon fill="black" stroke="black" points="568.23,-45.64 569.7,-35.15 562.01,-42.44 568.23,-45.64"/>
</g>
<!-- 0x61380c489eb0 -->
<g id="node18" class="node">
<title>0x61380c489eb0</title>
<ellipse fill="none" stroke="black" cx="614" cy="-90" rx="27" ry="18"/>
<text text-anchor="middle" x="614" y="-86.3" font-family="Times,serif" font-size="14.00">is</text>
</g>
<!-- 0x61380c48a6e0&#45;&gt;0x61380c489eb0 -->
<g id="edge16" class="edge">
<title>0x61380c48a6e0&#45;&gt;0x61380c489eb0</title>
<path fill="none" stroke="black" d="M582.51,-144.76C587.53,-136.19 593.8,-125.49 599.42,-115.9"/>
<polygon fill="black" stroke="black" points="602.51,-117.55 604.54,-107.15 596.47,-114.01 602.51,-117.55"/>
</g>
</g>
</svg>
