<?xml version="1.0" encoding="UTF-8" standalone="no"?>
<!DOCTYPE svg PUBLIC "-//W3C//DTD SVG 1.1//EN"
 "http://www.w3.org/Graphics/SVG/1.1/DTD/svg11.dtd">
<!-- Generated by graphviz version 2.43.0 (0)
 -->
<!-- Title: viz Pages: 1 -->
<svg width="670pt" height="331pt"
 viewBox="0.00 0.00 670.00 330.96" xmlns="http://www.w3.org/2000/svg" xmlns:xlink="http://www.w3.org/1999/xlink">
<g id="graph0" class="graph" transform="scale(1 1) rotate(0) translate(4 326.96)">
<title>viz</title>
<polygon fill="white" stroke="transparent" points="-4,4 -4,-326.96 666,-326.96 666,4 -4,4"/>
<!-- 0x7ffd90530c40 -->
<g id="node1" class="node">
<title>0x7ffd90530c40</title>
<ellipse fill="none" stroke="black" cx="341" cy="-296.09" rx="39.7" ry="26.74"/>
<text text-anchor="middle" x="341" y="-299.89" font-family="Times,serif" font-size="14.00">[root]</text>
<text text-anchor="middle" x="341" y="-284.89" font-family="Times,serif" font-size="14.00">0</text>
</g>
<!-- 0x5ae0b499c740 -->
<g id="node2" class="node">
<title>0x5ae0b499c740</title>
<ellipse fill="none" stroke="black" cx="99" cy="-206.35" rx="33.47" ry="26.74"/>
<text text-anchor="middle" x="99" y="-210.15" font-family="Times,serif" font-size="14.00">appl</text>
<text text-anchor="middle" x="99" y="-195.15" font-family="Times,serif" font-size="14.00">0</text>
</g>
<!-- 0x7ffd90530c40&#45;&gt;0x5ae0b499c740 -->
<g id="edge4" class="edge">
<title>0x7ffd90530c40&#45;&gt;0x5ae0b499c740</title>
<path fill="none" stroke="black" d="M306.58,-282.61C262.24,-266.53 185.31,-238.64 138.59,-221.7"/>
<polygon fill="black" stroke="black" points="139.7,-218.38 129.1,-218.26 137.31,-224.96 139.7,-218.38"/>
</g>
<!-- 0x5ae0b49a2980 -->
<g id="node6" class="node">
<title>0x5ae0b49a2980</title>
<ellipse fill="none" stroke="black" cx="289" cy="-206.35" rx="27" ry="26.74"/>
<text text-anchor="middle" x="289" y="-210.15" font-family="Times,serif" font-size="14.00">c</text>
<text text-anchor="middle" x="289" y="-195.15" font-family="Times,serif" font-size="14.00">0</text>
</g>
<!-- 0x7ffd90530c40&#45;&gt;0x5ae0b49a2980 -->
<g id="edge9" class="edge">
<title>0x7ffd90530c40&#45;&gt;0x5ae0b49a2980</title>
<path fill="none" stroke="black" d="M326.52,-270.65C320.66,-260.77 313.82,-249.24 307.6,-238.74"/>
<polygon fill="black" stroke="black" points="310.45,-236.67 302.34,-229.86 304.43,-240.24 310.45,-236.67"/>
</g>
<!-- 0x5ae0b499f860 -->
<g id="node11" class="node">
<title>0x5ae0b499f860</title>
<ellipse fill="none" stroke="black" cx="435" cy="-206.35" rx="27" ry="26.74"/>
<text text-anchor="middle" x="435" y="-210.15" font-family="Times,serif" font-size="14.00">fe</text>
<text text-anchor="middle" x="435" y="-195.15" font-family="Times,serif" font-size="14.00">0</text>
</g>
<!-- 0x7ffd90530c40&#45;&gt;0x5ae0b499f860 -->
<g id="edge15" class="edge">
<title>0x7ffd90530c40&#45;&gt;0x5ae0b499f860</title>
<path fill="none" stroke="black" d="M363.75,-273.85C377.14,-261.36 394.14,-245.49 408.18,-232.39"/>
<polygon fill="black" stroke="black" points="410.71,-234.81 415.63,-225.43 405.93,-229.7 410.71,-234.81"/>
</g>
<!-- 0x5ae0b499b6e0 -->
<g id="node17" class="node">
<title>0x5ae0b499b6e0</title>
<ellipse fill="none" stroke="black" cx="593" cy="-206.35" rx="30.31" ry="26.74"/>
<text text-anchor="middle" x="593" y="-210.15" font-family="Times,serif" font-size="14.00">pen</text>
<text text-anchor="middle" x="593" y="-195.15" font-family="Times,serif" font-size="14.00">0</text>
</g>
<!-- 0x7ffd90530c40&#45;&gt;0x5ae0b499b6e0 -->
<g id="edge17" class="edge">
<title>0x7ffd90530c40&#45;&gt;0x5ae0b499b6e0</title>
<path fill="none" stroke="black" d="M375.77,-282.98C422.89,-266.58 506.69,-237.4 555.28,-220.48"/>
<polygon fill="black" stroke="black" points="556.5,-223.76 564.8,-217.17 554.2,-217.15 556.5,-223.76"/>
</g>
<!-- 0x5ae0b499bf10 -->
<g id="node3" class="node">
<title>0x5ae0b499bf10</title>
<ellipse fill="none" stroke="black" cx="27" cy="-116.61" rx="27" ry="26.74"/>
<text text-anchor="middle" x="27" y="-120.41" font-family="Times,serif" font-size="14.00">e</text>
<text text-anchor="middle" x="27" y="-105.41" font-family="Times,serif" font-size="14.00">1</text>
</g>
<!-- 0x5ae0b499c740&#45;&gt;0x5ae0b499bf10 -->
<g id="edge1" class="edge">
<title>0x5ae0b499c740&#45;&gt;0x5ae0b499bf10</title>
<path fill="none" stroke="black" d="M80.83,-183.21C71.56,-171.91 60.17,-158.03 50.26,-145.96"/>
<polygon fill="black" stroke="black" points="52.73,-143.45 43.68,-137.94 47.32,-147.89 52.73,-143.45"/>
</g>
<!-- 0x5ae0b499cf70 -->
<g id="node4" class="node">
<title>0x5ae0b499cf70</title>
<ellipse fill="none" stroke="black" cx="99" cy="-116.61" rx="27" ry="26.74"/>
<text text-anchor="middle" x="99" y="-120.41" font-family="Times,serif" font-size="14.00">ic</text>
<text text-anchor="middle" x="99" y="-105.41" font-family="Times,serif" font-size="14.00">1</text>
</g>
<!-- 0x5ae0b499c740&#45;&gt;0x5ae0b499cf70 -->
<g id="edge3" class="edge">
<title>0x5ae0b499c740&#45;&gt;0x5ae0b499cf70</title>
<path fill="none" stroke="black" d="M99,-179.03C99,-171.06 99,-162.17 99,-153.68"/>
<polygon fill="black" stroke="black" points="102.5,-153.61 99,-143.61 95.5,-153.61 102.5,-153.61"/>
</g>
<!-- 0x5ae0b499d7a0 -->
<g id="node5" class="node">
<title>0x5ae0b499d7a0</title>
<ellipse fill="none" stroke="black" cx="92" cy="-26.87" rx="37.45" ry="26.74"/>
<text text-anchor="middle" x="92" y="-30.67" font-family="Times,serif" font-size="14.00">ation</text>
<text text-anchor="middle" x="92" y="-15.67" font-family="Times,serif" font-size="14.00">1</text>
</g>
<!-- 0x5ae0b499cf70&#45;&gt;0x5ae0b499d7a0 -->
<g id="edge2" class="edge">
<title>0x5ae0b499cf70&#45;&gt;0x5ae0b499d7a0</title>
<path fill="none" stroke="black" d="M96.94,-89.76C96.3,-81.71 95.57,-72.68 94.89,-64.06"/>
<polygon fill="black" stroke="black" points="98.36,-63.53 94.07,-53.84 91.38,-64.09 98.36,-63.53"/>
</g>
<!-- 0x5ae0b49a1920 -->
<g id="node7" class="node">
<title>0x5ae0b49a1920</title>
<ellipse fill="none" stroke="black" cx="181" cy="-116.61" rx="30.31" ry="26.74"/>
<text text-anchor="middle" x="181" y="-120.41" font-family="Times,serif" font-size="14.00">oup</text>
<text text-anchor="middle" x="181" y="-105.41" font-family="Times,serif" font-size="14.00">0</text>
</g>
<!-- 0x5ae0b49a2980&#45;&gt;0x5ae0b49a1920 -->
<g id="edge7" class="edge">
<title>0x5ae0b49a2980&#45;&gt;0x5ae0b49a1920</title>
<path fill="none" stroke="black" d="M268.43,-188.64C252.19,-175.45 229.3,-156.85 211.01,-141.99"/>
<polygon fill="black" stroke="black" points="212.94,-139.05 202.98,-135.46 208.53,-144.49 212.94,-139.05"/>
</g>
<!-- 0x5ae0b49a31b0 -->
<g id="node10" class="node">
<title>0x5ae0b49a31b0</title>
<ellipse fill="none" stroke="black" cx="289" cy="-116.61" rx="59.29" ry="26.74"/>
<text text-anchor="middle" x="289" y="-120.41" font-family="Times,serif" font-size="14.00">ulpabilite</text>
<text text-anchor="middle" x="289" y="-105.41" font-family="Times,serif" font-size="14.00">1</text>
</g>
<!-- 0x5ae0b49a2980&#45;&gt;0x5ae0b49a31b0 -->
<g id="edge8" class="edge">
<title>0x5ae0b49a2980&#45;&gt;0x5ae0b49a31b0</title>
<path fill="none" stroke="black" d="M289,-179.03C289,-171.06 289,-162.17 289,-153.68"/>
<polygon fill="black" stroke="black" points="292.5,-153.61 289,-143.61 285.5,-153.61 292.5,-153.61"/>
</g>
<!-- 0x5ae0b49a2150 -->
<g id="node8" class="node">
<title>0x5ae0b49a2150</title>
<ellipse fill="none" stroke="black" cx="181" cy="-26.87" rx="33.47" ry="26.74"/>
<text text-anchor="middle" x="181" y="-30.67" font-family="Times,serif" font-size="14.00">able</text>
<text text-anchor="middle" x="181" y="-15.67" font-family="Times,serif" font-size="14.00">1</text>
</g>
<!-- 0x5ae0b49a1920&#45;&gt;0x5ae0b49a2150 -->
<g id="edge5" class="edge">
<title>0x5ae0b49a1920&#45;&gt;0x5ae0b49a2150</title>
<path fill="none" stroke="black" d="M181,-89.29C181,-81.32 181,-72.43 181,-63.94"/>
<polygon fill="black" stroke="black" points="184.5,-63.87 181,-53.87 177.5,-63.87 184.5,-63.87"/>
</g>
<!-- 0x5ae0b49a10f0 -->
<g id="node9" class="node">
<title>0x5ae0b49a10f0</title>
<ellipse fill="none" stroke="black" cx="259" cy="-26.87" rx="27" ry="26.74"/>
<text text-anchor="middle" x="259" y="-30.67" font-family="Times,serif" font-size="14.00">e</text>
<text text-anchor="middle" x="259" y="-15.67" font-family="Times,serif" font-size="14.00">1</text>
</g>
<!-- 0x5ae0b49a1920&#45;&gt;0x5ae0b49a10f0 -->
<g id="edge6" class="edge">
<title>0x5ae0b49a1920&#45;&gt;0x5ae0b49a10f0</title>
<path fill="none" stroke="black" d="M199.48,-94.82C210.01,-82.98 223.31,-68.02 234.67,-55.24"/>
<polygon fill="black" stroke="black" points="237.42,-57.41 241.45,-47.61 232.19,-52.76 237.42,-57.41"/>
</g>
<!-- 0x5ae0b49a08c0 -->
<g id="node12" class="node">
<title>0x5ae0b49a08c0</title>
<ellipse fill="none" stroke="black" cx="393" cy="-116.61" rx="27" ry="26.74"/>
<text text-anchor="middle" x="393" y="-120.41" font-family="Times,serif" font-size="14.00">e</text>
<text text-anchor="middle" x="393" y="-105.41" font-family="Times,serif" font-size="14.00">1</text>
</g>
<!-- 0x5ae0b499f860&#45;&gt;0x5ae0b49a08c0 -->
<g id="edge10" class="edge">
<title>0x5ae0b499f860&#45;&gt;0x5ae0b49a08c0</title>
<path fill="none" stroke="black" d="M423.74,-181.84C419.13,-172.2 413.71,-160.88 408.72,-150.44"/>
<polygon fill="black" stroke="black" points="411.76,-148.7 404.29,-141.19 405.45,-151.72 411.76,-148.7"/>
</g>
<!-- 0x5ae0b49a0090 -->
<g id="node13" class="node">
<title>0x5ae0b49a0090</title>
<ellipse fill="none" stroke="black" cx="478" cy="-116.61" rx="40.11" ry="26.74"/>
<text text-anchor="middle" x="478" y="-120.41" font-family="Times,serif" font-size="14.00">lation</text>
<text text-anchor="middle" x="478" y="-105.41" font-family="Times,serif" font-size="14.00">1</text>
</g>
<!-- 0x5ae0b499f860&#45;&gt;0x5ae0b49a0090 -->
<g id="edge11" class="edge">
<title>0x5ae0b499f860&#45;&gt;0x5ae0b49a0090</title>
<path fill="none" stroke="black" d="M446.52,-181.84C451.09,-172.51 456.44,-161.61 461.41,-151.46"/>
<polygon fill="black" stroke="black" points="464.59,-152.94 465.84,-142.42 458.3,-149.86 464.59,-152.94"/>
</g>
<!-- 0x5ae0b499e800 -->
<g id="node14" class="node">
<title>0x5ae0b499e800</title>
<ellipse fill="none" stroke="black" cx="563" cy="-116.61" rx="27" ry="26.74"/>
<text text-anchor="middle" x="563" y="-120.41" font-family="Times,serif" font-size="14.00">t</text>
<text text-anchor="middle" x="563" y="-105.41" font-family="Times,serif" font-size="14.00">0</text>
</g>
<!-- 0x5ae0b499f860&#45;&gt;0x5ae0b499e800 -->
<g id="edge14" class="edge">
<title>0x5ae0b499f860&#45;&gt;0x5ae0b499e800</title>
<path fill="none" stroke="black" d="M457.06,-190.79C475.78,-178.37 503.29,-159.96 527,-143.48 528.9,-142.16 530.85,-140.79 532.81,-139.41"/>
<polygon fill="black" stroke="black" points="535.26,-141.96 541.38,-133.32 531.2,-136.26 535.26,-141.96"/>
</g>
<!-- 0x5ae0b499f030 -->
<g id="node15" class="node">
<title>0x5ae0b499f030</title>
<ellipse fill="none" stroke="black" cx="526" cy="-26.87" rx="28.98" ry="26.74"/>
<text text-anchor="middle" x="526" y="-30.67" font-family="Times,serif" font-size="14.00">ard</text>
<text text-anchor="middle" x="526" y="-15.67" font-family="Times,serif" font-size="14.00">1</text>
</g>
<!-- 0x5ae0b499e800&#45;&gt;0x5ae0b499f030 -->
<g id="edge12" class="edge">
<title>0x5ae0b499e800&#45;&gt;0x5ae0b499f030</title>
<path fill="none" stroke="black" d="M552.89,-91.63C548.97,-82.33 544.4,-71.51 540.16,-61.45"/>
<polygon fill="black" stroke="black" points="543.34,-59.98 536.23,-52.12 536.89,-62.7 543.34,-59.98"/>
</g>
<!-- 0x5ae0b499dfd0 -->
<g id="node16" class="node">
<title>0x5ae0b499dfd0</title>
<ellipse fill="none" stroke="black" cx="600" cy="-26.87" rx="27" ry="26.74"/>
<text text-anchor="middle" x="600" y="-30.67" font-family="Times,serif" font-size="14.00">e</text>
<text text-anchor="middle" x="600" y="-15.67" font-family="Times,serif" font-size="14.00">1</text>
</g>
<!-- 0x5ae0b499e800&#45;&gt;0x5ae0b499dfd0 -->
<g id="edge13" class="edge">
<title>0x5ae0b499e800&#45;&gt;0x5ae0b499dfd0</title>
<path fill="none" stroke="black" d="M573.11,-91.63C577.07,-82.25 581.67,-71.33 585.94,-61.2"/>
<polygon fill="black" stroke="black" points="589.24,-62.39 589.9,-51.82 582.79,-59.67 589.24,-62.39"/>
</g>
<!-- 0x5ae0b499aeb0 -->
<g id="node18" class="node">
<title>0x5ae0b499aeb0</title>
<ellipse fill="none" stroke="black" cx="635" cy="-116.61" rx="27" ry="26.74"/>
<text text-anchor="middle" x="635" y="-120.41" font-family="Times,serif" font-size="14.00">is</text>
<text text-anchor="middle" x="635" y="-105.41" font-family="Times,serif" font-size="14.00">1</text>
</g>
<!-- 0x5ae0b499b6e0&#45;&gt;0x5ae0b499aeb0 -->
<g id="edge16" class="edge">
<title>0x5ae0b499b6e0&#45;&gt;0x5ae0b499aeb0</title>
<path fill="none" stroke="black" d="M604.48,-181.37C609.05,-171.82 614.39,-160.66 619.31,-150.38"/>
<polygon fill="black" stroke="black" points="622.52,-151.78 623.68,-141.25 616.21,-148.76 622.52,-151.78"/>
</g>
</g>
</svg>
